<svg xmlns="http://www.w3.org/2000/svg" width="1600" height="900" viewBox="0 0 1600 900" role="img" aria-labelledby="title desc">
  <title id="title">המודל הכלכלי של הסטארטאפ</title>
  <desc id="desc">המודל הכלכלי של הסטארטאפ, השלד שמחזיק את העסק</desc>
  <rect width="1600" height="900" fill="#f7f7f7"/>
  <g font-family="Arial, sans-serif" fill="#1c1c1c" text-anchor="middle">
    <text x="800" y="126" font-size="42" font-weight="700">Modelera</text>
    <g transform="translate(914 114)" fill="none" stroke-linecap="round" stroke-width="7">
      <path d="M-22 4a20 20 0 0 1 29-18l8 6" stroke="#1c1c1c"/>
      <path d="M22-4A20 20 0 0 1-7 14l-8-6" stroke="#0b55b5"/>
    </g>
    <text x="800" y="350" font-size="58" font-weight="700" direction="rtl">המודל הכלכלי של הסטארטאפ</text>
    <text x="800" y="424" font-size="58" font-weight="700" direction="rtl">השלד שמחזיק את העסק</text>
  </g>
  <g transform="translate(800 610)" fill="none" stroke="#000" stroke-width="9" stroke-linecap="round" stroke-linejoin="round">
    <circle r="78"/>
    <circle r="52"/>
    <path d="M-100 34a108 108 0 0 1 24-112"/>
    <path d="M-76-78l5 28 27-4"/>
    <path d="M100-34a108 108 0 0 1-24 112"/>
    <path d="M76 78l-5-28-27 4"/>
  </g>
  <text x="800" y="642" font-family="Arial, sans-serif" font-size="72" font-weight="700" text-anchor="middle" fill="#000">$</text>
  <text x="800" y="820" font-family="Arial, sans-serif" font-size="32" font-weight="700" text-anchor="middle" fill="#0b55b5">modelera.io</text>
</svg>