<svg xmlns="http://www.w3.org/2000/svg" width="1600" height="900" viewBox="0 0 1600 900" role="img" aria-labelledby="title desc">
<title id="title">Startup's Business Model</title><desc id="desc">Modelera cover image for Startup's Business Model.</desc>
<rect width="1600" height="900" fill="#efefec"/>
<text x="800" y="130" text-anchor="middle" font-family="Arial,Helvetica,sans-serif" font-size="44" font-weight="700" fill="#171717">Modelera</text>
<text x="800" y="310" text-anchor="middle" font-family="Arial,Helvetica,sans-serif" font-size="64" font-weight="700" fill="#171717">Startup's Business Model</text>
<text x="800" y="390" text-anchor="middle" font-family="Arial,Helvetica,sans-serif" font-size="34" fill="#171717">The Skeleton That Holds the Whole Thing Up</text>
<g transform="translate(650 465)" stroke="#000" stroke-width="12" fill="none" stroke-linecap="round" stroke-linejoin="round"><circle cx="150" cy="120" r="82"/><circle cx="150" cy="120" r="46"/><path d="M74 38c-42 18-70 54-70 96 0 55 48 100 108 100"/><path d="M226 38c42 18 70 54 70 96 0 55-48 100-108 100"/><path d="M56 52l0-34 34 0"/><path d="M244 218l0 34-34 0"/><circle cx="150" cy="120" r="10" fill="#000"/><path d="M150 95v50"/></g>
<text x="800" y="835" text-anchor="middle" font-family="Arial,Helvetica,sans-serif" font-size="34" font-weight="700" fill="#1557b0">modelera.io</text>
</svg>